<svg width="98" height="95" viewBox="0 0 98 95" fill="none" xmlns="http://www.w3.org/2000/svg">
<path d="M63.6733 69.336V71H48.2493V69.336L51.7693 68.952C52.4519 68.8667 52.8573 68.696 52.9853 68.44C53.1133 68.184 53.1772 67.3093 53.1772 65.816V50.072H33.8493V65.816C33.8493 67.3093 33.9133 68.184 34.0413 68.44C34.1693 68.696 34.5746 68.8667 35.2573 68.952L38.7773 69.336V71H23.3533V69.336L26.8733 68.952C27.5559 68.8667 27.9613 68.696 28.0893 68.44C28.2173 68.184 28.2812 67.3093 28.2812 65.816V32.664C28.2812 31.1707 28.2173 30.296 28.0893 30.04C27.9613 29.784 27.5559 29.6133 26.8733 29.528L23.3533 29.208V27.48H38.7773V29.208L35.2573 29.528C34.5746 29.6133 34.1693 29.784 34.0413 30.04C33.9133 30.296 33.8493 31.1707 33.8493 32.664V48.024H53.1772V32.664C53.1772 31.1707 53.1133 30.296 52.9853 30.04C52.8573 29.784 52.4519 29.6133 51.7693 29.528L48.2493 29.208V27.48H63.6733V29.208L60.1533 29.528C59.4706 29.6133 59.0653 29.784 58.9373 30.04C58.8093 30.296 58.7453 31.1707 58.7453 32.664V65.816C58.7453 67.3093 58.8093 68.184 58.9373 68.44C59.0653 68.696 59.4706 68.8667 60.1533 68.952L63.6733 69.336Z" fill="black"/>
<path d="M69.3057 42.1455L70.9697 42.1473L70.9535 57.1233L69.2895 57.1215L68.0787 52.3202C67.9512 51.8081 67.8023 51.4453 67.6319 51.2317C67.5041 50.9756 67.227 50.826 66.8004 50.7828C66.3738 50.697 65.6485 50.6536 64.6245 50.6525L56.6885 50.6439L56.672 65.8118C56.6704 67.3052 56.7334 68.2012 56.8611 68.5001C56.9888 68.7562 57.394 68.906 58.0766 68.9494L62.8762 69.3386L62.8744 71.0026L46.1704 70.9845L46.1722 69.3205L49.6926 68.9403C50.3754 68.8557 50.7809 68.6855 50.9092 68.4296C51.0375 68.1737 51.1024 67.2991 51.104 65.8058L51.14 32.6538C51.1416 31.1605 51.0786 30.2858 50.9509 30.0296C50.8231 29.7735 50.418 29.6024 49.7354 29.5163L46.2158 29.1925L46.2177 27.4645L75.4656 27.4962L75.4543 37.9282L73.7903 37.9264L71.9416 31.2044C71.7717 30.4789 71.5162 30.0306 71.1751 29.8596C70.8766 29.6459 69.9808 29.5383 68.4874 29.5366L56.7114 29.5239L56.6907 48.5959L64.6267 48.6045C65.6507 48.6056 66.3761 48.585 66.8028 48.5428C67.2295 48.458 67.507 48.3089 67.6353 48.0957C67.8062 47.8399 67.956 47.4561 68.0845 46.9442L69.3057 42.1455Z" fill="black"/>
<path d="M97.5 47.15C97.5 72.8312 76.2335 93.65 50 93.65C23.7665 93.65 1 72.8312 1 47.15C1 21.4688 23.7665 0.649994 50 0.649994C76.2335 0.649994 97.5 21.4688 97.5 47.15Z" stroke="black"/>
</svg>
