<svg width="386" height="160" viewBox="0 0 386 160" fill="none" xmlns="http://www.w3.org/2000/svg">
<path d="M5.8892 54.2273V51.7273H23.3438V54.2273H16.0256V75H13.2074V54.2273H5.8892ZM25.517 75V57.5455H32.6534C34.5322 57.5455 36.0246 57.9697 37.1307 58.8182C38.2367 59.6667 38.7898 60.7879 38.7898 62.1818C38.7898 63.2424 38.4754 64.0644 37.8466 64.6477C37.2178 65.2235 36.411 65.6136 35.4261 65.8182C36.0701 65.9091 36.6951 66.1364 37.3011 66.5C37.9148 66.8636 38.4223 67.3636 38.8239 68C39.2254 68.6288 39.4261 69.4015 39.4261 70.3182C39.4261 71.2121 39.1989 72.0114 38.7443 72.7159C38.2898 73.4205 37.6383 73.9773 36.7898 74.3864C35.9413 74.7955 34.9261 75 33.7443 75H25.517ZM28.0625 72.5455H33.7443C34.6686 72.5455 35.392 72.3258 35.9148 71.8864C36.4375 71.447 36.6989 70.8485 36.6989 70.0909C36.6989 69.1894 36.4375 68.4811 35.9148 67.9659C35.392 67.4432 34.6686 67.1818 33.7443 67.1818H28.0625V72.5455ZM28.0625 64.8636H32.6534C33.3731 64.8636 33.9905 64.7652 34.5057 64.5682C35.0208 64.3636 35.4148 64.0758 35.6875 63.7045C35.9678 63.3258 36.108 62.8788 36.108 62.3636C36.108 61.6288 35.8011 61.053 35.1875 60.6364C34.5739 60.2121 33.7292 60 32.6534 60H28.0625V64.8636ZM50.5767 75.3636C49.0009 75.3636 47.6184 74.9886 46.429 74.2386C45.2472 73.4886 44.3229 72.4394 43.6562 71.0909C42.9972 69.7424 42.6676 68.1667 42.6676 66.3636C42.6676 64.5455 42.9972 62.9583 43.6562 61.6023C44.3229 60.2462 45.2472 59.1932 46.429 58.4432C47.6184 57.6932 49.0009 57.3182 50.5767 57.3182C52.1525 57.3182 53.5313 57.6932 54.7131 58.4432C55.9025 59.1932 56.8267 60.2462 57.4858 61.6023C58.1525 62.9583 58.4858 64.5455 58.4858 66.3636C58.4858 68.1667 58.1525 69.7424 57.4858 71.0909C56.8267 72.4394 55.9025 73.4886 54.7131 74.2386C53.5313 74.9886 52.1525 75.3636 50.5767 75.3636ZM50.5767 72.9545C51.7737 72.9545 52.7585 72.6477 53.5312 72.0341C54.304 71.4205 54.8759 70.6136 55.2472 69.6136C55.6184 68.6136 55.804 67.5303 55.804 66.3636C55.804 65.197 55.6184 64.1098 55.2472 63.1023C54.8759 62.0947 54.304 61.2803 53.5312 60.6591C52.7585 60.0379 51.7737 59.7273 50.5767 59.7273C49.3797 59.7273 48.3949 60.0379 47.6222 60.6591C46.8494 61.2803 46.2775 62.0947 45.9062 63.1023C45.535 64.1098 45.3494 65.197 45.3494 66.3636C45.3494 67.5303 45.535 68.6136 45.9062 69.6136C46.2775 70.6136 46.8494 71.4205 47.6222 72.0341C48.3949 72.6477 49.3797 72.9545 50.5767 72.9545ZM69.8977 75.3636C68.2159 75.3636 66.7652 74.9924 65.5455 74.25C64.3333 73.5 63.3977 72.4545 62.7386 71.1136C62.0871 69.7652 61.7614 68.197 61.7614 66.4091C61.7614 64.6212 62.0871 63.0455 62.7386 61.6818C63.3977 60.3106 64.3144 59.2424 65.4886 58.4773C66.6705 57.7045 68.0492 57.3182 69.625 57.3182C70.5341 57.3182 71.4318 57.4697 72.3182 57.7727C73.2045 58.0758 74.0114 58.5682 74.7386 59.25C75.4659 59.9242 76.0455 60.8182 76.4773 61.9318C76.9091 63.0455 77.125 64.4167 77.125 66.0455V67.1818H63.6705V64.8636H74.3977C74.3977 63.8788 74.2008 63 73.8068 62.2273C73.4205 61.4545 72.8674 60.8447 72.1477 60.3977C71.4356 59.9508 70.5947 59.7273 69.625 59.7273C68.5568 59.7273 67.6326 59.9924 66.8523 60.5227C66.0795 61.0455 65.4848 61.7273 65.0682 62.5682C64.6515 63.4091 64.4432 64.3106 64.4432 65.2727V66.8182C64.4432 68.1364 64.6705 69.2538 65.125 70.1705C65.5871 71.0795 66.2273 71.7727 67.0455 72.25C67.8636 72.7197 68.8144 72.9545 69.8977 72.9545C70.6023 72.9545 71.2386 72.8561 71.8068 72.6591C72.3826 72.4545 72.8788 72.1515 73.2955 71.75C73.7121 71.3409 74.0341 70.8333 74.2614 70.2273L76.8523 70.9545C76.5795 71.8333 76.1212 72.6061 75.4773 73.2727C74.8333 73.9318 74.0379 74.447 73.0909 74.8182C72.1439 75.1818 71.0795 75.3636 69.8977 75.3636ZM66.2159 54.6364C65.7386 54.6364 65.3144 54.4545 64.9432 54.0909C64.5795 53.7197 64.3977 53.2955 64.3977 52.8182C64.3977 52.2955 64.5795 51.8636 64.9432 51.5227C65.3144 51.1742 65.7386 51 66.2159 51C66.7386 51 67.1705 51.1742 67.5114 51.5227C67.8598 51.8636 68.0341 52.2955 68.0341 52.8182C68.0341 53.2955 67.8598 53.7197 67.5114 54.0909C67.1705 54.4545 66.7386 54.6364 66.2159 54.6364ZM72.7614 54.6364C72.2841 54.6364 71.8598 54.4545 71.4886 54.0909C71.125 53.7197 70.9432 53.2955 70.9432 52.8182C70.9432 52.2955 71.125 51.8636 71.4886 51.5227C71.8598 51.1742 72.2841 51 72.7614 51C73.2841 51 73.7159 51.1742 74.0568 51.5227C74.4053 51.8636 74.5795 52.2955 74.5795 52.8182C74.5795 53.2955 74.4053 53.7197 74.0568 54.0909C73.7159 54.4545 73.2841 54.6364 72.7614 54.6364ZM90.2045 75V57.5455H103.932V75H101.25V60.0455H92.8864V75H90.2045ZM111.511 71.0455L119.92 57.5455H123.011V75H120.33V61.5L111.966 75H108.83V57.5455H111.511V71.0455ZM125.548 60.0455V57.5455H139.73V60.0455H134.003V75H131.321V60.0455H125.548ZM147.872 75.4091C146.766 75.4091 145.762 75.2008 144.861 74.7841C143.959 74.3598 143.243 73.75 142.713 72.9545C142.183 72.1515 141.918 71.1818 141.918 70.0455C141.918 69.0455 142.115 68.2348 142.509 67.6136C142.902 66.9848 143.429 66.4924 144.088 66.1364C144.747 65.7803 145.474 65.5152 146.27 65.3409C147.073 65.1591 147.88 65.0152 148.69 64.9091C149.751 64.7727 150.611 64.6705 151.27 64.6023C151.937 64.5265 152.421 64.4015 152.724 64.2273C153.035 64.053 153.19 63.75 153.19 63.3182V63.2273C153.19 62.1061 152.884 61.2348 152.27 60.6136C151.664 59.9924 150.743 59.6818 149.509 59.6818C148.228 59.6818 147.224 59.9621 146.497 60.5227C145.77 61.0833 145.259 61.6818 144.963 62.3182L142.418 61.4091C142.872 60.3485 143.478 59.5227 144.236 58.9318C145.001 58.3333 145.834 57.9167 146.736 57.6818C147.645 57.4394 148.539 57.3182 149.418 57.3182C149.978 57.3182 150.622 57.3864 151.349 57.5227C152.084 57.6515 152.793 57.9205 153.474 58.3295C154.164 58.7386 154.736 59.3561 155.19 60.1818C155.645 61.0076 155.872 62.1136 155.872 63.5V75H153.19V72.6364H153.054C152.872 73.0152 152.569 73.4205 152.145 73.8523C151.721 74.2841 151.156 74.6515 150.452 74.9545C149.747 75.2576 148.887 75.4091 147.872 75.4091ZM148.281 73C149.342 73 150.236 72.7917 150.963 72.375C151.698 71.9583 152.251 71.4205 152.622 70.7614C153.001 70.1023 153.19 69.4091 153.19 68.6818V66.2273C153.077 66.3636 152.827 66.4886 152.44 66.6023C152.062 66.7083 151.622 66.803 151.122 66.8864C150.63 66.9621 150.149 67.0303 149.679 67.0909C149.217 67.1439 148.842 67.1894 148.554 67.2273C147.857 67.3182 147.205 67.4659 146.599 67.6705C146.001 67.8674 145.516 68.1667 145.145 68.5682C144.781 68.9621 144.599 69.5 144.599 70.1818C144.599 71.1136 144.944 71.8182 145.634 72.2955C146.33 72.7652 147.213 73 148.281 73ZM172.449 65.0455V67.5455H162.812V65.0455H172.449ZM163.449 57.5455V75H160.767V57.5455H163.449ZM174.494 57.5455V75H171.812V57.5455H174.494ZM182.074 71.0455L190.483 57.5455H193.574V75H190.892V61.5L182.528 75H179.392V57.5455H182.074V71.0455ZM205.804 75.3636C204.122 75.3636 202.671 74.9924 201.452 74.25C200.24 73.5 199.304 72.4545 198.645 71.1136C197.993 69.7652 197.668 68.197 197.668 66.4091C197.668 64.6212 197.993 63.0455 198.645 61.6818C199.304 60.3106 200.221 59.2424 201.395 58.4773C202.577 57.7045 203.955 57.3182 205.531 57.3182C206.44 57.3182 207.338 57.4697 208.224 57.7727C209.111 58.0758 209.918 58.5682 210.645 59.25C211.372 59.9242 211.952 60.8182 212.384 61.9318C212.815 63.0455 213.031 64.4167 213.031 66.0455V67.1818H199.577V64.8636H210.304C210.304 63.8788 210.107 63 209.713 62.2273C209.327 61.4545 208.774 60.8447 208.054 60.3977C207.342 59.9508 206.501 59.7273 205.531 59.7273C204.463 59.7273 203.539 59.9924 202.759 60.5227C201.986 61.0455 201.391 61.7273 200.974 62.5682C200.558 63.4091 200.349 64.3106 200.349 65.2727V66.8182C200.349 68.1364 200.577 69.2538 201.031 70.1705C201.493 71.0795 202.134 71.7727 202.952 72.25C203.77 72.7197 204.721 72.9545 205.804 72.9545C206.509 72.9545 207.145 72.8561 207.713 72.6591C208.289 72.4545 208.785 72.1515 209.202 71.75C209.618 71.3409 209.94 70.8333 210.168 70.2273L212.759 70.9545C212.486 71.8333 212.027 72.6061 211.384 73.2727C210.74 73.9318 209.944 74.447 208.997 74.8182C208.05 75.1818 206.986 75.3636 205.804 75.3636ZM102.499 102.773V100.318H116.499V102.773H102.499ZM102.499 109.5V107.045H116.499V109.5H102.499ZM0.673295 138.045V135.545H14.8551V138.045H9.12784V153H6.44602V138.045H0.673295ZM18.767 153V135.545H25.9034C27.7822 135.545 29.2746 135.97 30.3807 136.818C31.4867 137.667 32.0398 138.788 32.0398 140.182C32.0398 141.242 31.7254 142.064 31.0966 142.648C30.4678 143.223 29.661 143.614 28.6761 143.818C29.3201 143.909 29.9451 144.136 30.5511 144.5C31.1648 144.864 31.6723 145.364 32.0739 146C32.4754 146.629 32.6761 147.402 32.6761 148.318C32.6761 149.212 32.4489 150.011 31.9943 150.716C31.5398 151.42 30.8883 151.977 30.0398 152.386C29.1913 152.795 28.1761 153 26.9943 153H18.767ZM21.3125 150.545H26.9943C27.9186 150.545 28.642 150.326 29.1648 149.886C29.6875 149.447 29.9489 148.848 29.9489 148.091C29.9489 147.189 29.6875 146.481 29.1648 145.966C28.642 145.443 27.9186 145.182 26.9943 145.182H21.3125V150.545ZM21.3125 142.864H25.9034C26.6231 142.864 27.2405 142.765 27.7557 142.568C28.2708 142.364 28.6648 142.076 28.9375 141.705C29.2178 141.326 29.358 140.879 29.358 140.364C29.358 139.629 29.0511 139.053 28.4375 138.636C27.8239 138.212 26.9792 138 25.9034 138H21.3125V142.864ZM43.8267 153.364C42.2509 153.364 40.8684 152.989 39.679 152.239C38.4972 151.489 37.5729 150.439 36.9062 149.091C36.2472 147.742 35.9176 146.167 35.9176 144.364C35.9176 142.545 36.2472 140.958 36.9062 139.602C37.5729 138.246 38.4972 137.193 39.679 136.443C40.8684 135.693 42.2509 135.318 43.8267 135.318C45.4025 135.318 46.7813 135.693 47.9631 136.443C49.1525 137.193 50.0767 138.246 50.7358 139.602C51.4025 140.958 51.7358 142.545 51.7358 144.364C51.7358 146.167 51.4025 147.742 50.7358 149.091C50.0767 150.439 49.1525 151.489 47.9631 152.239C46.7813 152.989 45.4025 153.364 43.8267 153.364ZM43.8267 150.955C45.0237 150.955 46.0085 150.648 46.7812 150.034C47.554 149.42 48.1259 148.614 48.4972 147.614C48.8684 146.614 49.054 145.53 49.054 144.364C49.054 143.197 48.8684 142.11 48.4972 141.102C48.1259 140.095 47.554 139.28 46.7812 138.659C46.0085 138.038 45.0237 137.727 43.8267 137.727C42.6297 137.727 41.6449 138.038 40.8722 138.659C40.0994 139.28 39.5275 140.095 39.1562 141.102C38.785 142.11 38.5994 143.197 38.5994 144.364C38.5994 145.53 38.785 146.614 39.1562 147.614C39.5275 148.614 40.0994 149.42 40.8722 150.034C41.6449 150.648 42.6297 150.955 43.8267 150.955ZM63.1477 153.364C61.4659 153.364 60.0152 152.992 58.7955 152.25C57.5833 151.5 56.6477 150.455 55.9886 149.114C55.3371 147.765 55.0114 146.197 55.0114 144.409C55.0114 142.621 55.3371 141.045 55.9886 139.682C56.6477 138.311 57.5644 137.242 58.7386 136.477C59.9205 135.705 61.2992 135.318 62.875 135.318C63.7841 135.318 64.6818 135.47 65.5682 135.773C66.4545 136.076 67.2614 136.568 67.9886 137.25C68.7159 137.924 69.2955 138.818 69.7273 139.932C70.1591 141.045 70.375 142.417 70.375 144.045V145.182H56.9205V142.864H67.6477C67.6477 141.879 67.4508 141 67.0568 140.227C66.6705 139.455 66.1174 138.845 65.3977 138.398C64.6856 137.951 63.8447 137.727 62.875 137.727C61.8068 137.727 60.8826 137.992 60.1023 138.523C59.3295 139.045 58.7348 139.727 58.3182 140.568C57.9015 141.409 57.6932 142.311 57.6932 143.273V144.818C57.6932 146.136 57.9205 147.254 58.375 148.17C58.8371 149.08 59.4773 149.773 60.2955 150.25C61.1136 150.72 62.0644 150.955 63.1477 150.955C63.8523 150.955 64.4886 150.856 65.0568 150.659C65.6326 150.455 66.1288 150.152 66.5455 149.75C66.9621 149.341 67.2841 148.833 67.5114 148.227L70.1023 148.955C69.8295 149.833 69.3712 150.606 68.7273 151.273C68.0833 151.932 67.2879 152.447 66.3409 152.818C65.3939 153.182 64.3295 153.364 63.1477 153.364ZM59.4659 132.636C58.9886 132.636 58.5644 132.455 58.1932 132.091C57.8295 131.72 57.6477 131.295 57.6477 130.818C57.6477 130.295 57.8295 129.864 58.1932 129.523C58.5644 129.174 58.9886 129 59.4659 129C59.9886 129 60.4205 129.174 60.7614 129.523C61.1098 129.864 61.2841 130.295 61.2841 130.818C61.2841 131.295 61.1098 131.72 60.7614 132.091C60.4205 132.455 59.9886 132.636 59.4659 132.636ZM66.0114 132.636C65.5341 132.636 65.1098 132.455 64.7386 132.091C64.375 131.72 64.1932 131.295 64.1932 130.818C64.1932 130.295 64.375 129.864 64.7386 129.523C65.1098 129.174 65.5341 129 66.0114 129C66.5341 129 66.9659 129.174 67.3068 129.523C67.6553 129.864 67.8295 130.295 67.8295 130.818C67.8295 131.295 67.6553 131.72 67.3068 132.091C66.9659 132.455 66.5341 132.636 66.0114 132.636ZM82.3636 148.545H85.2273C85.2879 149.333 85.6439 149.932 86.2955 150.341C86.9545 150.75 87.8106 150.955 88.8636 150.955C89.9394 150.955 90.8598 150.735 91.625 150.295C92.3902 149.848 92.7727 149.129 92.7727 148.136C92.7727 147.553 92.6288 147.045 92.3409 146.614C92.053 146.174 91.6477 145.833 91.125 145.591C90.6023 145.348 89.9848 145.227 89.2727 145.227H86.2727V142.818H89.2727C90.3409 142.818 91.1288 142.576 91.6364 142.091C92.1515 141.606 92.4091 141 92.4091 140.273C92.4091 139.492 92.1326 138.867 91.5795 138.398C91.0265 137.92 90.2424 137.682 89.2273 137.682C88.2045 137.682 87.3523 137.913 86.6705 138.375C85.9886 138.83 85.6288 139.417 85.5909 140.136H82.7727C82.803 139.197 83.0909 138.367 83.6364 137.648C84.1818 136.92 84.9242 136.352 85.8636 135.943C86.803 135.527 87.8788 135.318 89.0909 135.318C90.3182 135.318 91.3826 135.534 92.2841 135.966C93.1932 136.39 93.8939 136.97 94.3864 137.705C94.8864 138.432 95.1364 139.258 95.1364 140.182C95.1364 141.167 94.8598 141.962 94.3068 142.568C93.7538 143.174 93.0606 143.606 92.2273 143.864V144.045C92.8864 144.091 93.4583 144.303 93.9432 144.682C94.4356 145.053 94.8182 145.542 95.0909 146.148C95.3636 146.746 95.5 147.409 95.5 148.136C95.5 149.197 95.2159 150.121 94.6477 150.909C94.0795 151.689 93.2992 152.295 92.3068 152.727C91.3144 153.152 90.1818 153.364 88.9091 153.364C87.6742 153.364 86.5682 153.163 85.5909 152.761C84.6136 152.352 83.8371 151.788 83.2614 151.068C82.6932 150.341 82.3939 149.5 82.3636 148.545ZM97.4034 158V150.5H98.858C99.214 150.129 99.5208 149.727 99.7784 149.295C100.036 148.864 100.259 148.352 100.449 147.761C100.646 147.163 100.813 146.436 100.949 145.58C101.085 144.716 101.206 143.674 101.312 142.455L101.903 135.545H112.994V150.5H115.676V158H112.994V153H100.085V158H97.4034ZM101.903 150.5H110.312V138.045H104.403L103.949 142.455C103.759 144.28 103.525 145.875 103.244 147.239C102.964 148.602 102.517 149.689 101.903 150.5ZM126.327 153.364C124.751 153.364 123.368 152.989 122.179 152.239C120.997 151.489 120.073 150.439 119.406 149.091C118.747 147.742 118.418 146.167 118.418 144.364C118.418 142.545 118.747 140.958 119.406 139.602C120.073 138.246 120.997 137.193 122.179 136.443C123.368 135.693 124.751 135.318 126.327 135.318C127.902 135.318 129.281 135.693 130.463 136.443C131.652 137.193 132.577 138.246 133.236 139.602C133.902 140.958 134.236 142.545 134.236 144.364C134.236 146.167 133.902 147.742 133.236 149.091C132.577 150.439 131.652 151.489 130.463 152.239C129.281 152.989 127.902 153.364 126.327 153.364ZM126.327 150.955C127.524 150.955 128.509 150.648 129.281 150.034C130.054 149.42 130.626 148.614 130.997 147.614C131.368 146.614 131.554 145.53 131.554 144.364C131.554 143.197 131.368 142.11 130.997 141.102C130.626 140.095 130.054 139.28 129.281 138.659C128.509 138.038 127.524 137.727 126.327 137.727C125.13 137.727 124.145 138.038 123.372 138.659C122.599 139.28 122.027 140.095 121.656 141.102C121.285 142.11 121.099 143.197 121.099 144.364C121.099 145.53 121.285 146.614 121.656 147.614C122.027 148.614 122.599 149.42 123.372 150.034C124.145 150.648 125.13 150.955 126.327 150.955ZM138.33 159.545V135.545H140.92V138.318H141.239C141.436 138.015 141.708 137.629 142.057 137.159C142.413 136.682 142.92 136.258 143.58 135.886C144.246 135.508 145.148 135.318 146.284 135.318C147.754 135.318 149.049 135.686 150.17 136.42C151.292 137.155 152.167 138.197 152.795 139.545C153.424 140.894 153.739 142.485 153.739 144.318C153.739 146.167 153.424 147.769 152.795 149.125C152.167 150.473 151.295 151.519 150.182 152.261C149.068 152.996 147.784 153.364 146.33 153.364C145.208 153.364 144.311 153.178 143.636 152.807C142.962 152.428 142.443 152 142.08 151.523C141.716 151.038 141.436 150.636 141.239 150.318H141.011V159.545H138.33ZM140.966 144.273C140.966 145.591 141.159 146.754 141.545 147.761C141.932 148.761 142.496 149.545 143.239 150.114C143.981 150.674 144.89 150.955 145.966 150.955C147.087 150.955 148.023 150.659 148.773 150.068C149.53 149.47 150.098 148.667 150.477 147.659C150.864 146.644 151.057 145.515 151.057 144.273C151.057 143.045 150.867 141.939 150.489 140.955C150.117 139.962 149.553 139.178 148.795 138.602C148.045 138.019 147.102 137.727 145.966 137.727C144.875 137.727 143.958 138.004 143.216 138.557C142.473 139.102 141.913 139.867 141.534 140.852C141.155 141.83 140.966 142.97 140.966 144.273ZM164.92 153.364C163.345 153.364 161.962 152.989 160.773 152.239C159.591 151.489 158.667 150.439 158 149.091C157.341 147.742 157.011 146.167 157.011 144.364C157.011 142.545 157.341 140.958 158 139.602C158.667 138.246 159.591 137.193 160.773 136.443C161.962 135.693 163.345 135.318 164.92 135.318C166.496 135.318 167.875 135.693 169.057 136.443C170.246 137.193 171.17 138.246 171.83 139.602C172.496 140.958 172.83 142.545 172.83 144.364C172.83 146.167 172.496 147.742 171.83 149.091C171.17 150.439 170.246 151.489 169.057 152.239C167.875 152.989 166.496 153.364 164.92 153.364ZM164.92 150.955C166.117 150.955 167.102 150.648 167.875 150.034C168.648 149.42 169.22 148.614 169.591 147.614C169.962 146.614 170.148 145.53 170.148 144.364C170.148 143.197 169.962 142.11 169.591 141.102C169.22 140.095 168.648 139.28 167.875 138.659C167.102 138.038 166.117 137.727 164.92 137.727C163.723 137.727 162.739 138.038 161.966 138.659C161.193 139.28 160.621 140.095 160.25 141.102C159.879 142.11 159.693 143.197 159.693 144.364C159.693 145.53 159.879 146.614 160.25 147.614C160.621 148.614 161.193 149.42 161.966 150.034C162.739 150.648 163.723 150.955 164.92 150.955ZM176.923 153V135.545H184.06C185.938 135.545 187.431 135.97 188.537 136.818C189.643 137.667 190.196 138.788 190.196 140.182C190.196 141.242 189.882 142.064 189.253 142.648C188.624 143.223 187.817 143.614 186.832 143.818C187.476 143.909 188.101 144.136 188.707 144.5C189.321 144.864 189.829 145.364 190.23 146C190.632 146.629 190.832 147.402 190.832 148.318C190.832 149.212 190.605 150.011 190.151 150.716C189.696 151.42 189.045 151.977 188.196 152.386C187.348 152.795 186.332 153 185.151 153H176.923ZM179.469 150.545H185.151C186.075 150.545 186.798 150.326 187.321 149.886C187.844 149.447 188.105 148.848 188.105 148.091C188.105 147.189 187.844 146.481 187.321 145.966C186.798 145.443 186.075 145.182 185.151 145.182H179.469V150.545ZM179.469 142.864H184.06C184.779 142.864 185.397 142.765 185.912 142.568C186.427 142.364 186.821 142.076 187.094 141.705C187.374 141.326 187.514 140.879 187.514 140.364C187.514 139.629 187.207 139.053 186.594 138.636C185.98 138.212 185.135 138 184.06 138H179.469V142.864ZM197.21 141.864H202.21C204.256 141.864 205.82 142.383 206.903 143.42C207.987 144.458 208.528 145.773 208.528 147.364C208.528 148.409 208.286 149.36 207.801 150.216C207.316 151.064 206.604 151.742 205.665 152.25C204.725 152.75 203.574 153 202.21 153H194.892V135.545H197.574V150.5H202.21C203.271 150.5 204.142 150.22 204.824 149.659C205.506 149.098 205.847 148.379 205.847 147.5C205.847 146.576 205.506 145.822 204.824 145.239C204.142 144.655 203.271 144.364 202.21 144.364H197.21V141.864ZM219.929 153.364C218.247 153.364 216.796 152.992 215.577 152.25C214.365 151.5 213.429 150.455 212.77 149.114C212.118 147.765 211.793 146.197 211.793 144.409C211.793 142.621 212.118 141.045 212.77 139.682C213.429 138.311 214.346 137.242 215.52 136.477C216.702 135.705 218.08 135.318 219.656 135.318C220.565 135.318 221.463 135.47 222.349 135.773C223.236 136.076 224.043 136.568 224.77 137.25C225.497 137.924 226.077 138.818 226.509 139.932C226.94 141.045 227.156 142.417 227.156 144.045V145.182H213.702V142.864H224.429C224.429 141.879 224.232 141 223.838 140.227C223.452 139.455 222.899 138.845 222.179 138.398C221.467 137.951 220.626 137.727 219.656 137.727C218.588 137.727 217.664 137.992 216.884 138.523C216.111 139.045 215.516 139.727 215.099 140.568C214.683 141.409 214.474 142.311 214.474 143.273V144.818C214.474 146.136 214.702 147.254 215.156 148.17C215.618 149.08 216.259 149.773 217.077 150.25C217.895 150.72 218.846 150.955 219.929 150.955C220.634 150.955 221.27 150.856 221.838 150.659C222.414 150.455 222.91 150.152 223.327 149.75C223.743 149.341 224.065 148.833 224.293 148.227L226.884 148.955C226.611 149.833 226.152 150.606 225.509 151.273C224.865 151.932 224.069 152.447 223.122 152.818C222.175 153.182 221.111 153.364 219.929 153.364Z" fill="black"/>
<path d="M245 62L271.182 58.8969C298.368 55.6749 324.458 46.285 347.462 31.4438V31.4438C355.143 26.4885 362.434 20.9544 369.273 14.8898L385.5 0.5" stroke="black"/>
</svg>
